name ./resultDataOpenSim/trcMotMarkerGrf/sub09/grf-05-02.mot
datacolumns 19
datarows 17
range 1.54000000 1.60400000
endheader

                time	     ground_force_vx	     ground_force_vy	     ground_force_vz	     ground_force_px	     ground_force_py	     ground_force_pz	   l_ground_force_vx	   l_ground_force_vy	   l_ground_force_vz	   l_ground_force_px	   l_ground_force_py	   l_ground_force_pz	     ground_torque_x	     ground_torque_y	     ground_torque_z	   l_ground_torque_x	   l_ground_torque_y	   l_ground_torque_z	
          1.54000000	        -25.49492530	        495.71600135	        -16.40446325	          1.08846344	          0.00000000	          0.15909998	          0.00000000	          0.00000000	          0.00000000	          0.00000000	          0.00000000	          0.00000000	          0.00000000	          1.74408896	          0.00000000	          0.00000000	          0.00000000	          0.00000000	
          1.54400000	        -22.86687460	        492.83419649	        -18.93549260	          1.08888343	          0.00000000	          0.15933817	          0.00000000	          0.00000000	          0.00000000	          0.00000000	          0.00000000	          0.00000000	          0.00000000	          1.41689234	          0.00000000	          0.00000000	          0.00000000	          0.00000000	
          1.54800000	        -20.42780360	        490.05160439	        -20.67517492	          1.08929004	          0.00000000	          0.15954887	          0.00000000	          0.00000000	          0.00000000	          0.00000000	          0.00000000	          0.00000000	          0.00000000	          1.17548412	          0.00000000	          0.00000000	          0.00000000	          0.00000000	
          1.55200000	        -18.46461517	        487.41070400	        -21.38700331	          1.08971223	          0.00000000	          0.15969504	          0.00000000	          0.00000000	          0.00000000	          0.00000000	          0.00000000	          0.00000000	          0.00000000	          1.06537547	          0.00000000	          0.00000000	          0.00000000	          0.00000000	
          1.55600000	        -17.13737279	        484.93842250	        -21.03252775	          1.09017382	          0.00000000	          0.15976054	          0.00000000	          0.00000000	          0.00000000	          0.00000000	          0.00000000	          0.00000000	          0.00000000	          1.10373359	          0.00000000	          0.00000000	          0.00000000	          0.00000000	
          1.56000000	        -16.44349312	        482.64343863	        -19.75661501	          1.09068865	          0.00000000	          0.15974700	          0.00000000	          0.00000000	          0.00000000	          0.00000000	          0.00000000	          0.00000000	          0.00000000	          1.27797767	          0.00000000	          0.00000000	          0.00000000	          0.00000000	
          1.56400000	        -16.22323942	        480.52554982	        -17.84314235	          1.09125092	          0.00000000	          0.15966568	          0.00000000	          0.00000000	          0.00000000	          0.00000000	          0.00000000	          0.00000000	          0.00000000	          1.54971273	          0.00000000	          0.00000000	          0.00000000	          0.00000000	
          1.56800000	        -16.19890899	        478.58766994	        -15.66278853	          1.09182715	          0.00000000	          0.15952906	          0.00000000	          0.00000000	          0.00000000	          0.00000000	          0.00000000	          0.00000000	          0.00000000	          1.86258541	          0.00000000	          0.00000000	          0.00000000	          0.00000000	
          1.57200000	        -16.04404109	        476.83189225	        -13.61601524	          1.09236071	          0.00000000	          0.15935290	          0.00000000	          0.00000000	          0.00000000	          0.00000000	          0.00000000	          0.00000000	          0.00000000	          2.15289412	          0.00000000	          0.00000000	          0.00000000	          0.00000000	
          1.57600000	        -15.47073085	        475.25080390	        -12.06564907	          1.09279513	          0.00000000	          0.15915919	          0.00000000	          0.00000000	          0.00000000	          0.00000000	          0.00000000	          0.00000000	          0.00000000	          2.36181440	          0.00000000	          0.00000000	          0.00000000	          0.00000000	
          1.58000000	        -14.30662085	        473.83582219	        -11.26938611	          1.09311241	          0.00000000	          0.15897332	          0.00000000	          0.00000000	          0.00000000	          0.00000000	          0.00000000	          0.00000000	          0.00000000	          2.44748206	          0.00000000	          0.00000000	          0.00000000	          0.00000000	
          1.58400000	        -12.53445375	        472.59657330	        -11.33193055	          1.09333052	          0.00000000	          0.15881232	          0.00000000	          0.00000000	          0.00000000	          0.00000000	          0.00000000	          0.00000000	          0.00000000	          2.39434560	          0.00000000	          0.00000000	          0.00000000	          0.00000000	
          1.58800000	        -10.28699705	        471.56417905	        -12.18658527	          1.09346576	          0.00000000	          0.15867056	          0.00000000	          0.00000000	          0.00000000	          0.00000000	          0.00000000	          0.00000000	          0.00000000	          2.21703889	          0.00000000	          0.00000000	          0.00000000	          0.00000000	
          1.59200000	         -7.80895737	        470.76570547	        -13.60684229	          1.09355104	          0.00000000	          0.15853587	          0.00000000	          0.00000000	          0.00000000	          0.00000000	          0.00000000	          0.00000000	          0.00000000	          1.95709631	          0.00000000	          0.00000000	          0.00000000	          0.00000000	
          1.59600000	         -5.39490934	        470.19614793	        -15.24887769	          1.09362841	          0.00000000	          0.15839595	          0.00000000	          0.00000000	          0.00000000	          0.00000000	          0.00000000	          0.00000000	          0.00000000	          1.67294867	          0.00000000	          0.00000000	          0.00000000	          0.00000000	
          1.60000000	         -3.31184228	        469.82257089	        -16.72239571	          1.09374664	          0.00000000	          0.15823737	          0.00000000	          0.00000000	          0.00000000	          0.00000000	          0.00000000	          0.00000000	          0.00000000	          1.42594944	          0.00000000	          0.00000000	          0.00000000	          0.00000000	
          1.60400000	         -1.72827526	        469.61451931	        -17.67743325	          1.09393490	          0.00000000	          0.15804085	          0.00000000	          0.00000000	          0.00000000	          0.00000000	          0.00000000	          0.00000000	          0.00000000	          1.26659041	          0.00000000	          0.00000000	          0.00000000	          0.00000000	
